<?xml version="1.0" encoding="utf-8"?>
<!-- Generator: Adobe Illustrator 26.3.1, SVG Export Plug-In . SVG Version: 6.00 Build 0)  -->
<svg version="1.1" id="Livello_1" xmlns="http://www.w3.org/2000/svg" xmlns:xlink="http://www.w3.org/1999/xlink" x="0px" y="0px"
	 viewBox="0 0 499.2 232.9" style="enable-background:new 0 0 499.2 232.9;" xml:space="preserve">
<style type="text/css">
	.st0{fill:#363636;}
</style>
<g>
	<path class="st0" d="M0.3,231.2c0.4-1,0.7-1.3,0.7-1.4c10.1-15.6,26.1-21.1,42.8-25.9c4.9-1.4,9.8-3,14.3-5.6
		c1.1-0.7,2.8-1,2.8-2.5c0-1.7-1.7-1.6-3-2c-0.6-0.2-1.3-0.4-1.9-0.8c-1.5-0.8-3.1-1.5-3.3-3.3c-0.3-2.2,1.6-3.3,3.2-4
		c4.7-2.1,9.4-4.1,14.2-5.9c11.6-4.3,22.4-10.1,33.2-15.9c0.4-0.2,0.8-0.5,0.8-1c-0.1-0.6-0.4-0.7-0.6-0.8c-2.1-0.8-5.6,0.9-6.3-2.6
		c-0.7-3.3,2-5.1,4.4-6.7c4.7-3.1,9.6-5.9,14.4-8.9c1.6-1,3.9-2,3.1-4.5c-0.7-2.2-3.1-1.6-4.8-1.6c-2.6-0.1-5.3,0.1-7.9,0.1
		c-1.5,0-3.2,0.1-3.9-1.5c-0.8-1.8,0.2-3.3,1.4-4.5c3.9-4,8.5-6.9,13.5-9.2c5.6-2.6,11.6-4.7,16.7-9c0.2-0.2,0.2-0.5,0-0.7
		c-2.5-1.5-5-1-7.4-1.2c-1.4-0.1-2.6-0.5-3.2-1.9c-0.7-1.6,0.1-2.9,1.3-4c3.5-3.3,8.2-4.3,12.5-5.8c4.2-1.5,8.5-2.9,12.2-5.5
		c5.7-4,5.4-10.1-0.9-13.3c-5.6-2.9-11.8-4.4-17.9-5.5c-8-1.4-15.2-4.8-21.6-9.5c-6.6-4.8-13.1-6-20.8-2.4c-6.8,3.2-9,1.3-9.1-6.1
		c0-5.9,2.4-10,7.6-12.9c10.3-5.8,21.8-6.5,32.9-8.8c15.4-3.1,30.9-5.8,45.5-12c1.3-0.6,2.9-0.8,4.3-1.1c1.4-0.2,2.7,0,3.1,1.7
		c0.5,1.8,0.2,3.4-1.1,4.6c-1.8,1.6-2.1-0.3-2.7-1.4c-0.9-1.5-2-0.6-3.1-0.3c-5.2,1.5-10,3.4-14.9,5.3c-12.8,5.1-26.5,5.2-39.8,7.8
		c-8.4,1.6-16.5,3.9-23.1,9.8c-1.1,1-2.2,2.1-3,3.3c-1.2,2-2.6,4.5-1.2,6.5c1.7,2.3,4,0.1,5.8-0.6c8.4-3,15.2-2,22.1,4.8
		c7.6,7.5,18.4,9.4,28.9,10.4c4.4,0.4,8.9,0.6,13.2,2.1c8.3,2.9,10.2,11.6,3.9,17.9c-4.6,4.5-10.4,6.3-16.3,8
		c-2.4,0.7-4.8,1.4-7.1,2.2c-0.9,0.3-2,0.6-2,1.9c0,1.2,0.9,1.7,2,1.9c3,0.4,6.3,1.4,5.6,5.2c-0.3,1.7-1.3,3.3-2.7,4.3
		c-4.9,3.8-10.5,6.2-15.9,9.1c-3.1,1.6-6.2,3.3-9.2,5c-0.9,0.5-2.3,1.4-1.5,2.7c0.6,1,1.7,0.3,2.7,0.1c4.7-0.9,9.4-1.7,14.1-2.5
		c3.2-0.5,3.5,1,2.3,3.4c-1,2-2.7,3.4-4.4,4.7c-6.1,4.9-12.2,9.8-18.2,14.7c-0.8,0.6-1.8,1.1-2,2.3c0,0.2,0.1,0.5,0.3,0.6
		c2.4,0.8,4-1.4,5.8-2.2c1.7-0.7,3.5-2.1,4.8-0.1c1.1,1.7-0.6,3.1-1.8,4.2c-7,6.3-15.4,10.4-23.7,14.6c-8.9,4.5-17.8,9-26.7,13.5
		c-1.1,0.6-3,1-2.7,2.4c0.3,1.6,1.9,1.5,3.1,1.9c2.1,0.6,5.2,0.4,5.4,3.4c0.2,2.8-2.4,3.7-4.4,4.9c-11.8,7.4-25.2,10-38.3,13.2
		c-8.3,2.1-14.9,6.1-19.8,13.1c-1.6,2.3-2.9,5.5-6.7,5.3C0,232.8-0.2,232.3,0.3,231.2z"/>
	<path class="st0" d="M234.8,163.8c-0.2-0.3,0-0.7,0.4-0.7c2.7,0.1,4.7,1.7,7,2.4c9.9,3.1,18.7,1.1,26.3-5.7
		c7.9-7,11.9-16.3,15-26.1c2-6.4,3.8-12.8,5.8-19.1c2.9-9.8,9.5-16.6,17.8-22c14-9,29.3-14.9,45.2-19.1
		c32.9-8.7,63.3-23.4,93.3-39.2c11.2-5.9,22.5-11.4,32.6-19.2c3.8-2.9,8.6-3.6,13.1-3.9c2.8-0.2,5.7,0.7,7.1,3.6c1.3,2.8,1,5.6-1,8
		c-5.1,5.8-10.9,10.6-17.6,14.5c-7.9,4.6-15.7,9.3-23.5,14c-1.1,0.6-2.5,1-2.7,2.8c0,0.3,0.2,0.5,0.5,0.4c6.2-2.6,12.3-5.7,18.5-8.3
		c2.9-1.2,6.6-3.1,8.6,0.1c2.1,3.3-0.8,6.2-3.5,8.4c-6,5-12.3,9.7-19.6,12.7c-5.2,2.2-10.1,5.1-14.9,8c-1,0.6-3.1,1-2.1,2.7
		c0.8,1.4,2.5,0.3,3.6-0.2c4.6-2.3,9.2-4.7,13.6-7.2c5.6-3.2,11.5-5,17.8-5.9c1.6-0.2,3.5-0.5,4.5,1.1c0.8,1.4,0,2.9-0.7,4.2
		c-2.5,4.7-6.7,7.9-10.7,11c-13.6,10.5-28.9,17.4-45.9,20.6c-2.3,0.4-4.5,0.5-6.9,0.1c-0.4-0.1-0.4-0.7,0-0.8
		c19.8-5.2,36.4-16.5,54.3-27.8c-4.2-2.2-6.7-1-9,0c-6.7,2.9-13.2,6.3-20.2,8.4c-2.7,0.8-5.4,1.5-8.3,1.3c-1.2-0.1-2.5,0.1-3-1.2
		c-0.5-1.2,0.4-2.3,1.2-3.1c2.9-3,6.7-4.9,10.2-7c7.9-4.6,16-8.8,23.5-14.1c1.5-1,3.1-1.9,3.8-4.2c-3.1-1.1-5.3,0.9-7.6,2.1
		c-7.3,3.6-14.7,6.8-22.6,9.1c-1.1,0.3-2.2,0.7-3.4,0.7c-1.8,0.1-3.9,0.7-4.8-1.4c-0.8-2,0.5-3.5,1.8-4.8
		c6.6-6.4,15.1-9.5,22.9-13.9c10.6-5.9,21.2-11.8,29.5-21c1.2-1.3,3.5-2.9,2.4-4.4c-1.4-2.1-4-0.7-5.9,0.2
		c-13.1,6.5-26,13.3-39.1,19.8c-22.1,11.1-44.2,22.2-67,31.7c-5.2,2.2-10.7,3.5-16.2,4.7c-20,4.6-37.7,13.6-52.6,27.8
		c-5.9,5.7-9.6,13-12.7,20.7c-4.8,12-8.5,24.5-17.1,34.7c-11,13.1-24.7,13.6-38.5,7C237,165.8,235.7,165.3,234.8,163.8z"/>
	<path class="st0" d="M412.4,38.4c-3.5,6.7-17.4,14.9-25.6,15.1c-0.6,0-0.9-0.6-0.6-1.1c4.2-6.7,9.4-12.4,14.3-18.3
		c2-2.4,4.3-4.6,6.4-7c0.6-0.7,1.5-1.8,0.6-2.6c-1.2-1.2-2,0.2-2.7,1c-6.2,6.6-13.5,11.8-21.2,16.4c-1.6,1-3.8,3.1-5.3,1.2
		c-1.2-1.6,1-3.7,2.3-5c6.2-6.5,11.6-13.5,16.8-20.8c1.6-2.2,2.9-4.6,4.1-7c0.4-0.9,0.7-1.8-0.3-2.8c-1.2-1.1-2.4-0.7-3.7-0.4
		c-4.7,1.4-8,4.8-10.8,8.5c-14.5,19-32.5,34.3-51.3,48.6c-5.9,4.5-12.9,7.5-19.3,11.4c-7.4,4.5-14.2,9.7-20.5,15.7
		c-8.4,7.9-10.8,18.5-14.3,28.6c-3.3,9.3-8,17.9-12.8,26.5c-0.7,1.3-1.7,3.1-3.3,2.2c-1.5-0.8-0.1-2.4,0.4-3.5
		c5.5-13.8,10.7-27.6,15.3-41.7c5.1-15.5,15.7-27,30.9-33.4c21.5-9.2,39-23.9,55.5-40c6.9-6.7,12.7-14.5,19.1-21.7
		c3.9-4.5,8.6-7.8,14.8-8.4c5.7-0.5,8.1,2.6,6,8c-2,5-5.6,9-8.8,13.3c-0.9,1.2-3.2,2.6-1.3,4c1.7,1.3,2.6-1.2,3.7-2.3
		c3.1-3.2,6.1-6.6,10-9c3.4-2.1,5.3-1.1,5.3,3c0,4.1-1.6,8-4.2,11c-3.7,4.4-7.1,9.2-11.9,12.7c-1.1,0.8-2.4,1.7-1.6,3.2
		c1,1.6,2.6,0.5,3.5-0.1c2.9-1.6,5.6-3.6,8.3-5.4C410.8,38.1,411.6,38,412.4,38.4z"/>
	<path class="st0" d="M252.3,158.8c0.4,0.3,0,0.9-0.4,0.7c-8.6-3.6-16.2-13.6-16.5-21.5c-0.1-1.9-0.2-3.9,1.6-5
		c1.7-1,3.2,0.5,4.5,1.2c2.2,1.2,4.1,2.9,6.3,4.1c2.5,1.4,4.1,0.7,4.2-2.5c0.1-3.7-1.5-6.7-3.4-9.8c-2.4-4-3.8-6.9-5.1-11.3
		c-0.4-1.3-0.9-2.8,0.3-3.7c1.2-0.9,2.5,0.2,3.7,0.8c0.1,0.1,0.3,0.2,0.4,0.2c2.9,1.6,5.5,4.2,7.4,2c1.6-2-1.7-4.9-3.3-7.2
		c-2.8-3.9-6.2-7.4-7.4-12.3c-0.5-2.2-0.7-4.3-0.4-6.4c0.8-6.2,2.7-7.1,7.9-4.1c0.6,0.3,1.2,0.6,1.8,0.9c0.3,0.1,2.3,0.7,1.9-0.1
		c-9.1-9.2-10.8-21.4-15.9-32c-5.1-10.5-3.4-12.5,1.3-18.4c0.8-0.9,1.4-2,1.7-3.1c0.7-2.2,0.4-4.4-1.1-6.2c-1.7-1.9-3.7-0.5-5.5,0.1
		c-8.8,3.4-17.4,7.6-27.1,7.7c-4.9,0.1-10,0.4-14.2-2.9c-2.5-2-5.3-1.8-8-1c-2.5,0.8-8.1,2.2-8.2,1.2c4.6-2.8,9.2-3.3,13.7-4.1
		c1.4-0.2,3,0.3,4,1.7c2.1,3,5.1,3.5,8.4,3c3-0.4,8.4,1.6,4.7-5.2c-0.8-1.8,1.7-3.4,2.9-4.9c0.9-1.1,2.8-2.2,1.6-3.8
		c-1.3-1.7-3-0.3-4.4,0.4c-2.2,1.1-4.4,2.4-6.6,3.5c-1.4,0.7-2.7,1.7-5,1.4c-0.7-0.1-0.9-1.1-0.3-1.4c6.5-3.8,11.4-8.8,18.6-9.9
		c2.8-0.4,3.9,1.2,3.4,4c-0.6,3.1-1.2,6.2-2.7,9c-0.6,1.1-1.5,2.5-0.2,3.6c1,0.9,2.3,0.3,3.3-0.1c5-1.8,9.7-4.4,14.3-7.1
		c3.6-2.1,7.2-6.3,11.9-2c5.7,5.2,7.8,13,4.9,18.5c-0.5,1-1.1,1.9-1.9,2.9c-5,5.7-5.9,8.1-4.1,14.2c3.1,10.5,8,22.9,16.3,30.5
		c2.7,2.5,0.6,3.4-1.5,3.8c-2.2,0.4-4.2-0.6-6.2-1.4c-2.8-1-4.5-0.4-4.2,3.1c0.4,4.3,1.3,8.2,4.4,11.4c2.6,2.6,4.4,5.8,5.8,9.3
		c0.9,2.1,1,4.3-0.3,6.2c-1.5,2.2-3.4,1.1-5.3,0.7c-1.4-0.3-3.2-1.7-4.1-0.2c-1.2,2,0.2,4,1.6,5.3c4.8,4.5,5.6,9.8,4.1,16
		c-1,3.8-2.8,4.6-6,2.6c-0.8-0.5-1.7-1.1-2.5-1.6c-1.5-1-3.1-1.7-4.6-0.6c-1.8,1.2-1.4,3.3-0.8,5
		C243.5,150.5,247.6,154.8,252.3,158.8z"/>
	<path class="st0" d="M337,133.6c-0.2,0-0.3-0.2-0.1-0.3c2.7-2.5,6.4-3.3,8.9-6c2.2-2.3,2.9-3.9-0.8-5.3c-1.9-0.7-4.6-1.1-4.2-4
		c0.3-2.5,2.8-2.4,4.6-3.2c3.3-1.5,6.8-2.8,10-4.5c3-1.6,3.9-4.2,1.2-6.9c-3.2-3.1-3-5.5,0.6-8c1.3-0.9,3.2-2.2,2.5-3.9
		c-0.8-1.8-2.9-0.7-4.5-0.7c-1.8,0.1-6,0.3-5.5-0.3c3.5-3.9,13.6-4.7,17.3-1.4c1.8,1.6,1.5,3.3-0.3,4.6c-3.8,2.7-4.2,5.2,0,8
		c3.7,2.5,1.8,5.2-0.3,7.5c-2.7,3-6.8,3.3-10.2,4.9c-5.3,2.3-5.5,3-1.6,7c1.8,1.9,1.3,3.9-0.2,5.3C349.3,131,343.6,133.4,337,133.6z
		"/>
	<path class="st0" d="M179.5,97.2c-0.2-0.1-0.3-0.4-0.1-0.6c2.6-4,6.4-6.2,11.1-6.1c5.6,0,7.7,3.9,5.7,9.3c-1,2.7-4.1,6-1.2,8.1
		c2.9,2,6.1-1.2,8.7-3.2c1.8-1.4,3-3.5,4.5-5.3c0.6-0.8,1.3-1.7,2.4-1c0.8,0.6,0.3,1.5,0,2.3c-2.7,6.2-7.3,10.3-13.8,12
		c-2.2,0.6-4.7,0.8-6.5-1.2c-1.9-2.1-1.1-4.4-0.2-6.6c0.9-2.2,2.1-4.2,2.9-6.3c0.5-1.3,1.8-2.7,0.3-4.1c-1.2-1.1-2.9-1-4.3-0.6
		c-2.5,0.8-4.9,2.1-7.3,3.2C181,97.5,180.4,97.8,179.5,97.2z"/>
	<path class="st0" d="M167.3,46.8c-4.5,0.1-8.7-1.8-13-0.6c-0.7,0.2-1.8,0.1-2-0.9c-0.3-1.1,0.7-1.4,1.4-1.7
		c6.8-3.1,13.9-2.6,20.9-1.2c2,0.4,2,2,0.3,3.2C172.5,47.1,169.8,47.2,167.3,46.8z"/>
	<path class="st0" d="M185.8,141.5c-0.4,0-0.5-0.5-0.2-0.6c5.3-3,10.5-6.5,15.4-9.9c1.2-0.8,2.5-1.2,3.6,0c1.4,1.5,0.4,2.8-0.7,3.9
		C198.9,139.6,192.5,141.3,185.8,141.5z"/>
</g>
</svg>
